<?xml version="1.0" encoding="UTF-8"?>
<svg width="176px" height="73px" viewBox="0 0 176 73" version="1.1" xmlns="http://www.w3.org/2000/svg" xmlns:xlink="http://www.w3.org/1999/xlink">
    <!-- Generator: Sketch 48.2 (47327) - http://www.bohemiancoding.com/sketch -->
    <title>logo</title>
    <desc>Created with Sketch.</desc>
    <defs></defs>
    <g id="logo" stroke="none" stroke-width="1" fill="none" fill-rule="evenodd" transform="translate(-1098.000000, -81.000000)">
        <g transform="translate(1094.000000, 67.000000)">
            <path d="M34.1257592,14.7508027 L34.1257592,49.2094961 C34.0813677,53.8040115 32.7496441,57.3996653 30.1305483,59.9965653 C27.5114526,62.5934653 23.8603103,63.8918959 19.177012,63.8918959 C14.382735,63.8918959 10.720495,62.6212096 8.1901822,60.0797989 C5.65986936,57.5383882 4.37253652,53.9149901 4.32814507,49.2094961 L4.32814507,14.7508027 L10.3875482,14.7508027 L10.3875482,48.9764421 C10.3875482,52.2392139 11.0811542,54.6751584 12.4683871,56.2843486 C13.8556201,57.8935388 16.091806,58.6981218 19.177012,58.6981218 C22.2844137,58.6981218 24.5316973,57.8935388 25.9189303,56.2843486 C27.3061632,54.6751584 27.9997692,52.2392139 27.9997692,48.9764421 L27.9997692,14.7508027 L34.1257592,14.7508027 Z M56.6759397,43.6162009 L48.1528233,43.6162009 L48.1528233,63.2260274 L42.0268333,63.2260274 L42.0268333,14.7508027 L55.6105502,14.7508027 C60.3604357,14.7508027 63.9560895,15.9881959 66.3976194,18.4630194 C68.8391493,20.9378429 70.059896,24.5612409 70.059896,29.3333222 C70.059896,32.3297453 69.399583,34.9432529 68.0789373,37.1739234 C66.7582916,39.404594 64.8883296,41.0858951 62.4689954,42.2178771 L71.8577409,62.8265063 L71.8577409,63.2260274 L65.2989364,63.2260274 L56.6759397,43.6162009 Z M48.1528233,38.3891334 L55.5439633,38.3891334 C58.0964719,38.3891334 60.1328993,37.5679038 61.6533065,35.9254201 C63.1737138,34.2829363 63.9339061,32.0855923 63.9339061,29.3333222 C63.9339061,23.1185187 61.115091,20.0111636 55.4773765,20.0111636 L48.1528233,20.0111636 L48.1528233,38.3891334 Z M87.7492367,39.0882953 L97.6706769,14.7508027 L104.562416,14.7508027 L90.7789382,45.1476984 L90.7789382,63.2260274 L84.6862417,63.2260274 L84.6862417,45.1476984 L70.9027644,14.7508027 L77.8277965,14.7508027 L87.7492367,39.0882953 Z M138.765294,57.1999177 L137.699905,58.5316547 C134.636895,62.1051667 130.153425,63.8918959 124.249362,63.8918959 C119.01117,63.8918959 114.899474,62.1551063 111.914148,58.6814751 C108.928823,55.2078438 107.40289,50.297113 107.336303,43.9491351 L107.336303,34.427216 C107.336303,27.6353236 108.69577,22.5470296 111.414747,19.1621813 C114.133723,15.777333 118.201029,14.0849342 123.616787,14.0849342 C128.233498,14.0849342 131.845798,15.372267 134.453796,17.9469713 C137.061794,20.5216756 138.498946,24.1950133 138.765294,28.9670945 L132.672598,28.9670945 C132.428445,25.9484757 131.590569,23.5902151 130.158944,21.892242 C128.72732,20.1942689 126.55772,19.3452951 123.65008,19.3452951 C120.165351,19.3452951 117.612881,20.482809 115.992593,22.757871 C114.372305,25.032933 113.52888,28.6674287 113.462292,33.6614673 L113.462292,43.5496141 C113.462292,48.4326739 114.394499,52.1781466 116.25894,54.7861445 C118.123381,57.3941424 120.797926,58.6981218 124.282655,58.6981218 C127.567623,58.6981218 130.064604,57.8990876 131.773675,56.3009953 L132.672598,55.4686597 L132.672598,44.2820694 L123.816547,44.2820694 L123.816547,39.0882953 L138.765294,39.0882953 L138.765294,57.1999177 Z M169.838591,50.5745264 L153.458227,50.5745264 L149.69607,63.2260274 L143.436906,63.2260274 L159.051522,14.7508027 L164.27859,14.7508027 L179.926499,63.2260274 L173.667335,63.2260274 L169.838591,50.5745264 Z M155.056311,45.3141655 L168.2738,45.3141655 L161.648409,23.2739191 L155.056311,45.3141655 Z" id="URYGA" fill="#629BDD"></path>
            <path d="M12.0528247,85.450901 C11.6698475,85.9440497 11.1871986,86.3152172 10.6048634,86.5644147 C10.0225283,86.8136121 9.3851169,86.938209 8.69261023,86.938209 C7.51744739,86.938209 6.59411901,86.5447452 5.92259739,85.7578058 C5.25107577,84.9708664 4.90220453,83.8796601 4.87597322,82.4841543 L4.87597322,79.6984027 C4.87597322,78.2346954 5.19467889,77.1133236 5.83209981,76.3342536 C6.46952073,75.5551836 7.3784221,75.1656544 8.5588312,75.1656544 C9.61333,75.1656544 10.439604,75.4568176 11.0376779,76.0391528 C11.6357519,76.621488 11.9715076,77.4608774 12.0449553,78.5573463 L11.1478489,78.5573463 C11.0534162,77.6759742 10.7950416,77.0320051 10.3727175,76.6254197 C9.95039331,76.2188344 9.3483937,76.0155447 8.56670056,76.0155447 C7.6328658,76.0155447 6.93381178,76.3263811 6.46951754,76.9480633 C6.00522329,77.5697454 5.77307965,78.4812699 5.77307965,79.682664 L5.77307965,82.3267672 C5.77307965,83.5229151 6.02883112,84.4514896 6.54034173,85.1125187 C7.05185234,85.7735478 7.769268,86.1040574 8.69261023,86.1040574 C9.6946464,86.1040574 10.5130511,85.7866633 11.1478489,85.1518655 L11.1478489,82.1693801 L8.63752475,82.1693801 L8.63752475,81.3273591 L12.0528247,81.3273591 L12.0528247,85.450901 Z M19.2112255,83.5779946 L14.9145579,83.5779946 L13.9387579,86.7808219 L13.0023047,86.7808219 L16.6536853,75.3230415 L17.4878369,75.3230415 L21.1392174,86.7808219 L20.2027642,86.7808219 L19.2112255,83.5779946 Z M15.1742466,82.7359736 L18.9515368,82.7359736 L17.0628917,76.5900076 L15.1742466,82.7359736 Z M22.2067378,86.7808219 L22.2067378,75.3230415 L25.1105296,75.3230415 C26.1440434,75.3230415 26.9270363,75.5761699 27.459532,76.0824342 C27.9920277,76.5886986 28.2582715,77.3349683 28.2582715,78.3212657 C28.2582715,78.9088471 28.1218707,79.42035 27.8490651,79.8557898 C27.5762594,80.2912296 27.1985342,80.6060007 26.715878,80.8001124 C27.2719818,80.9417615 27.7218421,81.2657133 28.0654723,81.7719777 C28.4091025,82.278242 28.580915,82.8723724 28.580915,83.5543865 C28.580915,84.5511764 28.3081135,85.338104 27.7625022,85.9151929 C27.2168908,86.4922818 26.4430787,86.7808219 25.4410425,86.7808219 L22.2067378,86.7808219 Z M23.1038442,81.280143 L23.1038442,85.9466703 L25.4803893,85.9466703 C26.1624035,85.9466703 26.7001373,85.736823 27.093607,85.3171219 C27.4870767,84.8974209 27.6838086,84.3150945 27.6838086,83.5701252 C27.6838086,82.8776185 27.5015037,82.3267692 27.1368885,81.9175607 C26.7722732,81.5083522 26.2647049,81.2958818 25.6141683,81.280143 L23.1038442,81.280143 Z M23.1038442,80.4538608 L25.1892232,80.4538608 C25.8712373,80.4538608 26.4011019,80.2728674 26.7788328,79.9108753 C27.1565637,79.5488832 27.3454264,79.0111493 27.3454264,78.2976576 C27.3454264,77.5684271 27.1604984,77.0320048 26.7906369,76.6883746 C26.4207753,76.3447444 25.8607452,76.1729318 25.1105296,76.1729318 L23.1038442,76.1729318 L23.1038442,80.4538608 Z M31.2695225,86.7808219 L30.372416,86.7808219 L30.372416,75.3230415 L31.2695225,75.3230415 L31.2695225,86.7808219 Z M40.7179055,86.7808219 L39.8207991,86.7808219 L34.4145524,77.0228221 L34.4145524,86.7808219 L33.5095766,86.7808219 L33.5095766,75.3230415 L34.4145524,75.3230415 L39.8286684,85.09678 L39.8286684,75.3230415 L40.7179055,75.3230415 L40.7179055,86.7808219 Z M48.1517338,81.2958817 L43.7055484,81.2958817 L43.7055484,85.9466703 L48.8206289,85.9466703 L48.8206289,86.7808219 L42.808442,86.7808219 L42.808442,75.3230415 L48.7812822,75.3230415 L48.7812822,76.1729318 L43.7055484,76.1729318 L43.7055484,80.4617301 L48.1517338,80.4617301 L48.1517338,81.2958817 Z M56.8997443,76.1729318 L53.6418315,76.1729318 L53.6418315,86.7808219 L52.7368557,86.7808219 L52.7368557,76.1729318 L49.4868122,76.1729318 L49.4868122,75.3230415 L56.8997443,75.3230415 L56.8997443,76.1729318 Z M66.1644203,83.9635929 C66.1644203,83.3235489 65.9821154,82.8199152 65.6175002,82.4526769 C65.2528849,82.0854385 64.5721925,81.7339441 63.5754026,81.3981833 C62.5786127,81.0624225 61.8467701,80.6873204 61.3798527,80.2728656 C60.7660399,79.7325006 60.4591382,79.0190195 60.4591382,78.1324011 C60.4591382,77.2562753 60.7607938,76.5427943 61.364114,75.9919367 C61.9674342,75.4410791 62.7464925,75.1656544 63.7013123,75.1656544 C64.6771172,75.1656544 65.4745371,75.4856717 66.0935961,76.1257157 C66.7126551,76.7657597 67.02218,77.5894106 67.02218,78.5966931 L66.1172042,78.5966931 C66.1172042,77.8254925 65.9007991,77.2025081 65.4679824,76.7277213 C65.0351658,76.2529346 64.4462816,76.0155447 63.7013123,76.0155447 C62.9773281,76.0155447 62.4068055,76.2109651 61.9897277,76.6018117 C61.5726498,76.9926582 61.364114,77.4976034 61.364114,78.1166624 C61.364114,78.6937513 61.5608459,79.1659079 61.9543156,79.5331463 C62.3477853,79.9003847 62.9747043,80.2269596 63.8350913,80.5128809 C64.6954784,80.7988022 65.3460052,81.0952116 65.7866913,81.402118 C66.2273774,81.7090244 66.5526408,82.0696995 66.7624913,82.4841543 C66.9723418,82.898609 67.0772655,83.3865041 67.0772655,83.9478542 C67.0772655,84.8449652 66.7742983,85.567627 66.168355,86.1158614 C65.5624116,86.6640959 64.761057,86.938209 63.7642671,86.938209 C63.0927455,86.938209 62.4802535,86.8004967 61.9267728,86.5250679 C61.3732921,86.2496391 60.9404819,85.8535522 60.6283293,85.3367953 C60.3161767,84.8200385 60.1601027,84.2101696 60.1601027,83.5071704 L61.0572091,83.5071704 C61.0572091,84.3150948 61.3011567,84.9498831 61.7890591,85.4115542 C62.2769615,85.8732253 62.9353576,86.1040574 63.7642671,86.1040574 C64.4882514,86.1040574 65.0692663,85.9099486 65.5073292,85.5217252 C65.9453921,85.1335017 66.1644203,84.6141295 66.1644203,83.9635929 Z M75.0383405,76.1729318 L71.7804277,76.1729318 L71.7804277,86.7808219 L70.8754519,86.7808219 L70.8754519,76.1729318 L67.6254084,76.1729318 L67.6254084,75.3230415 L75.0383405,75.3230415 L75.0383405,76.1729318 Z M83.1331945,82.2952898 C83.1331945,83.7747358 82.8092427,84.9184039 82.1613292,85.7263284 C81.5134158,86.5342528 80.6045144,86.938209 79.4345979,86.938209 C78.2751738,86.938209 77.3662724,86.5342528 76.7078665,85.7263284 C76.0494605,84.9184039 75.7176394,83.7826051 75.7123931,82.3188978 L75.7123931,79.8243124 C75.7123931,78.3501126 76.0402796,77.2051329 76.6960624,76.3893391 C77.3518453,75.5735452 78.2594351,75.1656544 79.4188591,75.1656544 C80.594022,75.1656544 81.506858,75.5748568 82.1573946,76.3932738 C82.8079311,77.2116907 83.1331945,78.3632281 83.1331945,79.8479205 L83.1331945,82.2952898 Z M82.2282188,79.8085737 C82.2282188,78.5547169 81.9868943,77.6130269 81.5042381,76.9834754 C81.021582,76.3539238 80.3264626,76.0391528 79.4188591,76.0391528 C78.5427333,76.0391528 77.8581063,76.3473661 77.3649576,76.963802 C76.8718089,77.5802378 76.6199921,78.5022547 76.6094995,79.7298801 L76.6094995,82.2952898 C76.6094995,83.5543928 76.8586933,84.5000175 77.3570882,85.1321921 C77.8554832,85.7643668 78.5479795,86.0804494 79.4345979,86.0804494 C80.3474476,86.0804494 81.0412554,85.7656783 81.5160422,85.1361268 C81.9908289,84.5065753 82.2282188,83.5596391 82.2282188,82.2952898 L82.2282188,79.8085737 Z M86.08936,75.3230415 L89.5597454,85.4036849 L93.0458695,75.3230415 L94.2341421,75.3230415 L94.2341421,86.7808219 L93.3370357,86.7808219 L93.3370357,81.8152591 L93.4157292,76.8182189 L89.905997,86.7808219 L89.2134938,86.7808219 L85.7195003,76.865435 L85.7981939,81.7837817 L85.7981939,86.7808219 L84.9010875,86.7808219 L84.9010875,75.3230415 L86.08936,75.3230415 Z M101.66797,83.5779946 L97.3713027,83.5779946 L96.3955027,86.7808219 L95.4590495,86.7808219 L99.1104301,75.3230415 L99.9445817,75.3230415 L103.595962,86.7808219 L102.659509,86.7808219 L101.66797,83.5779946 Z M97.6309914,82.7359736 L101.408282,82.7359736 L99.5196365,76.5900076 L97.6309914,82.7359736 Z M110.203508,76.1729318 L106.945595,76.1729318 L106.945595,86.7808219 L106.04062,86.7808219 L106.04062,76.1729318 L102.790576,76.1729318 L102.790576,75.3230415 L110.203508,75.3230415 L110.203508,76.1729318 Z M118.298362,82.2952898 C118.298362,83.7747358 117.97441,84.9184039 117.326497,85.7263284 C116.678584,86.5342528 115.769682,86.938209 114.599766,86.938209 C113.440342,86.938209 112.53144,86.5342528 111.873034,85.7263284 C111.214628,84.9184039 110.882807,83.7826051 110.877561,82.3188978 L110.877561,79.8243124 C110.877561,78.3501126 111.205447,77.2051329 111.86123,76.3893391 C112.517013,75.5735452 113.424603,75.1656544 114.584027,75.1656544 C115.75919,75.1656544 116.672026,75.5748568 117.322562,76.3932738 C117.973099,77.2116907 118.298362,78.3632281 118.298362,79.8479205 L118.298362,82.2952898 Z M117.393387,79.8085737 C117.393387,78.5547169 117.152062,77.6130269 116.669406,76.9834754 C116.18675,76.3539238 115.49163,76.0391528 114.584027,76.0391528 C113.707901,76.0391528 113.023274,76.3473661 112.530125,76.963802 C112.036977,77.5802378 111.78516,78.5022547 111.774667,79.7298801 L111.774667,82.2952898 C111.774667,83.5543928 112.023861,84.5000175 112.522256,85.1321921 C113.020651,85.7643668 113.713147,86.0804494 114.599766,86.0804494 C115.512615,86.0804494 116.206423,85.7656783 116.68121,85.1361268 C117.155997,84.5065753 117.393387,83.5596391 117.393387,82.2952898 L117.393387,79.8085737 Z M120.971231,85.9466703 L125.692844,85.9466703 L125.692844,86.7808219 L120.066255,86.7808219 L120.066255,75.3230415 L120.971231,75.3230415 L120.971231,85.9466703 Z M133.504401,82.2952898 C133.504401,83.7747358 133.180449,84.9184039 132.532536,85.7263284 C131.884622,86.5342528 130.975721,86.938209 129.805804,86.938209 C128.64638,86.938209 127.737479,86.5342528 127.079073,85.7263284 C126.420667,84.9184039 126.088846,83.7826051 126.0836,82.3188978 L126.0836,79.8243124 C126.0836,78.3501126 126.411486,77.2051329 127.067269,76.3893391 C127.723052,75.5735452 128.630642,75.1656544 129.790066,75.1656544 C130.965229,75.1656544 131.878065,75.5748568 132.528601,76.3932738 C133.179138,77.2116907 133.504401,78.3632281 133.504401,79.8479205 L133.504401,82.2952898 Z M132.599425,79.8085737 C132.599425,78.5547169 132.358101,77.6130269 131.875445,76.9834754 C131.392789,76.3539238 130.697669,76.0391528 129.790066,76.0391528 C128.91394,76.0391528 128.229313,76.3473661 127.736164,76.963802 C127.243015,77.5802378 126.991199,78.5022547 126.980706,79.7298801 L126.980706,82.2952898 C126.980706,83.5543928 127.2299,84.5000175 127.728295,85.1321921 C128.22669,85.7643668 128.919186,86.0804494 129.805804,86.0804494 C130.718654,86.0804494 131.412462,85.7656783 131.887249,85.1361268 C132.362036,84.5065753 132.599425,83.5596391 132.599425,82.2952898 L132.599425,79.8085737 Z M142.252412,85.450901 C141.869434,85.9440497 141.386786,86.3152172 140.80445,86.5644147 C140.222115,86.8136121 139.584704,86.938209 138.892197,86.938209 C137.717034,86.938209 136.793706,86.5447452 136.122184,85.7578058 C135.450663,84.9708664 135.101791,83.8796601 135.07556,82.4841543 L135.07556,79.6984027 C135.07556,78.2346954 135.394266,77.1133236 136.031687,76.3342536 C136.669108,75.5551836 137.578009,75.1656544 138.758418,75.1656544 C139.812917,75.1656544 140.639191,75.4568176 141.237265,76.0391528 C141.835339,76.621488 142.171095,77.4608774 142.244542,78.5573463 L141.347436,78.5573463 C141.253003,77.6759742 140.994629,77.0320051 140.572304,76.6254197 C140.14998,76.2188344 139.547981,76.0155447 138.766288,76.0155447 C137.832453,76.0155447 137.133399,76.3263811 136.669105,76.9480633 C136.20481,77.5697454 135.972667,78.4812699 135.972667,79.682664 L135.972667,82.3267672 C135.972667,83.5229151 136.228418,84.4514896 136.739929,85.1125187 C137.251439,85.7735478 137.968855,86.1040574 138.892197,86.1040574 C139.894233,86.1040574 140.712638,85.7866633 141.347436,85.1518655 L141.347436,82.1693801 L138.837112,82.1693801 L138.837112,81.3273591 L142.252412,81.3273591 L142.252412,85.450901 Z M145.263663,86.7808219 L144.366556,86.7808219 L144.366556,75.3230415 L145.263663,75.3230415 L145.263663,86.7808219 Z M154.373663,83.2081349 C154.289723,84.4934693 153.943475,85.4364708 153.334909,86.0371679 C152.726342,86.637865 151.88433,86.938209 150.808846,86.938209 C149.701884,86.938209 148.828395,86.5198258 148.188351,85.6830469 C147.548307,84.846268 147.225666,83.7091577 147.22042,82.2716817 L147.22042,79.7849656 C147.22042,78.3422434 147.546995,77.2116907 148.200155,76.3932738 C148.853314,75.5748568 149.746477,75.1656544 150.87967,75.1656544 C151.949908,75.1656544 152.778805,75.4725562 153.366386,76.0863689 C153.953967,76.7001817 154.289723,77.6418717 154.373663,78.9114673 L153.460818,78.9114673 C153.376878,77.8727072 153.131619,77.1303722 152.725034,76.6844399 C152.318448,76.2385076 151.703333,76.0155447 150.87967,76.0155447 C150.014037,76.0155447 149.339902,76.338185 148.857246,76.9834754 C148.37459,77.6287657 148.133265,78.5652095 148.133265,79.792835 L148.133265,82.2480736 C148.133265,83.4652066 148.36672,84.4121428 148.833638,85.0889107 C149.300555,85.7656785 149.958951,86.1040574 150.808846,86.1040574 C151.70071,86.1040574 152.345991,85.8810946 152.744707,85.4351623 C153.143423,84.9892299 153.382124,84.2468949 153.460818,83.2081349 L154.373663,83.2081349 Z M156.424853,85.9466703 L162.319,85.9466703 L162.319,86.7808219 L155.378229,86.7808219 L155.378229,86.0332332 L161.044164,76.1650625 L155.535616,76.1650625 L155.535616,75.3230415 L162.106527,75.3230415 L162.106527,76.0391528 L156.424853,85.9466703 Z M170.972578,86.7808219 L170.075472,86.7808219 L164.669225,77.0228221 L164.669225,86.7808219 L163.764249,86.7808219 L163.764249,75.3230415 L164.669225,75.3230415 L170.083341,85.09678 L170.083341,75.3230415 L170.972578,75.3230415 L170.972578,86.7808219 Z M175.911821,81.5555704 L178.768397,75.3230415 L179.799282,75.3230415 L176.352505,82.4684156 L176.352505,86.7808219 L175.455398,86.7808219 L175.455398,82.4684156 L172.01649,75.3230415 L173.070984,75.3230415 L175.911821,81.5555704 Z" id="GABINET-STOMATOLOGIC" fill="#9B9B9B"></path>
        </g>
    </g>
</svg>